<?xml version="1.0" encoding="UTF-8"?>
<svg id="Layer_1" data-name="Layer 1" xmlns="http://www.w3.org/2000/svg" viewBox="0 0 800 800">
  <defs>
    <style>
      .cls-1 {
        fill: #dec7e6;
      }

      .cls-2 {
        fill: #2e1a47;
      }
    </style>
  </defs>
  <rect class="cls-1" width="800" height="800"/>
  <g>
    <path class="cls-2" d="M206.21,343.14c1.07,0,1.61.48,1.61,1.43v122.37c0,.96-.54,1.43-1.61,1.43h-17.89c-.96,0-1.43-.48-1.43-1.43v-100.54l-39.18,101.08c-.36.6-.84.89-1.43.89h-6.08c-.6,0-1.07-.3-1.43-.89l-38.64-98.93,3.76,98.4c0,.96-.54,1.43-1.61,1.43h-8.94c-.96,0-1.43-.48-1.43-1.43v-122.37c0-.95.48-1.43,1.43-1.43h18.61c.6,0,1.01.3,1.25.89l36.85,96.43,37.39-96.43c.36-.6.83-.89,1.43-.89h17.35Z"/>
    <path class="cls-2" d="M267.21,366.22c6.8,0,12.88,1.25,18.25,3.76,5.37,2.5,9.99,5.97,13.87,10.38,3.87,4.41,6.89,9.57,9.03,15.48,2.15,5.9,3.4,12.25,3.76,19.05,0,.96-.27,1.73-.8,2.33-.54.6-1.28.89-2.24.89h-57.25c-.36,0-.57-.65-.63-1.97-.06-1.31.15-1.97.63-1.97,5.48,0,10.56-.39,15.21-1.16,4.65-.77,8.68-2,12.08-3.67,3.4-1.67,6.05-3.76,7.96-6.26,1.91-2.5,2.86-5.43,2.86-8.77,0-3.58-.63-6.68-1.88-9.3-1.25-2.62-2.89-4.77-4.92-6.44-2.03-1.67-4.41-2.89-7.16-3.67-2.74-.77-5.67-1.16-8.77-1.16-4.41,0-8.38,1.16-11.9,3.49-3.52,2.33-6.53,5.52-9.03,9.57-2.5,4.06-4.41,8.77-5.72,14.13-1.31,5.37-1.97,11.09-1.97,17.17,0,6.44.95,11.99,2.86,16.64,1.91,4.65,4.44,8.53,7.6,11.63,3.16,3.1,6.8,5.4,10.91,6.89,4.11,1.49,8.38,2.24,12.79,2.24,6.32,0,12.52-1.43,18.61-4.29,6.08-2.86,11.15-7.16,15.21-12.88.83-.83,1.61-.89,2.33-.18l.54.54c.48.48.6,1.01.36,1.61-1.43,3.82-3.43,7.51-5.99,11.09-2.57,3.58-5.67,6.74-9.3,9.48-3.64,2.75-7.78,4.95-12.43,6.62-4.65,1.67-9.66,2.5-15.03,2.5-7.87,0-14.88-1.37-21.02-4.12-6.14-2.74-11.3-6.44-15.48-11.09-4.18-4.65-7.37-10.14-9.57-16.46-2.21-6.32-3.31-13.06-3.31-20.22,0-8.11,1.25-15.39,3.76-21.83,2.5-6.44,5.99-11.9,10.47-16.37,4.47-4.47,9.72-7.87,15.74-10.2,6.02-2.33,12.55-3.49,19.59-3.49Z"/>
    <path class="cls-2" d="M445.04,368.54c1.19-.24,1.79.24,1.79,1.43v97.14c0,.96-.48,1.43-1.43,1.43h-16.46c-.96,0-1.43-.48-1.43-1.43v-36.5c-1.91,4.53-4.47,9.12-7.69,13.78-3.22,4.65-7.07,8.89-11.54,12.7-4.47,3.82-9.6,6.92-15.39,9.3-5.79,2.38-12.32,3.58-19.59,3.58-7.87,0-15-1.34-21.38-4.03-6.38-2.68-11.87-6.38-16.46-11.09-4.59-4.71-8.14-10.2-10.64-16.46-2.5-6.26-3.76-12.97-3.76-20.13,0-6.44.92-12.76,2.77-18.96,1.85-6.2,4.59-11.72,8.23-16.55,3.64-4.83,8.08-8.74,13.33-11.72,5.25-2.98,11.27-4.47,18.07-4.47,7.87,0,14.55,2.06,20.04,6.17,5.48,4.12,9.84,9.39,13.06,15.83v-52.78c0-.72.42-1.19,1.25-1.43l16.28-3.76c1.31-.24,1.97.24,1.97,1.43v94.82h-.18c-.12.12-.18.21-.18.27s-.06.15-.18.27l-16.46,15.39c-.48.48-1.02.57-1.61.27-.6-.3-.89-.74-.89-1.34v-23.44c0-5.25-.57-10.2-1.7-14.85-1.14-4.65-2.84-8.7-5.1-12.16-2.27-3.46-5.1-6.2-8.5-8.23-3.4-2.03-7.31-3.04-11.72-3.04-4.65,0-8.71,1.07-12.17,3.22-3.46,2.15-6.35,4.98-8.68,8.5-2.33,3.52-4.06,7.58-5.19,12.17-1.13,4.59-1.7,9.39-1.7,14.4,0,6.08.92,11.66,2.77,16.73,1.85,5.07,4.35,9.42,7.51,13.06,3.16,3.64,6.83,6.47,11,8.5,4.17,2.03,8.59,3.04,13.24,3.04,7.75,0,14.76-1.97,21.02-5.9,6.26-3.94,11.63-8.74,16.1-14.4,4.47-5.66,7.93-11.54,10.38-17.62,2.44-6.08,3.67-11.27,3.67-15.56v-32.38c0-.72.42-1.19,1.25-1.43l16.28-3.76ZM437.17,342.06c3.1,0,5.64.98,7.6,2.95,1.97,1.97,2.95,4.32,2.95,7.07s-.98,5.13-2.95,7.16c-1.97,2.03-4.5,3.04-7.6,3.04s-5.61-1.01-7.51-3.04c-1.91-2.03-2.86-4.41-2.86-7.16s.95-5.1,2.86-7.07c1.91-1.97,4.41-2.95,7.51-2.95Z"/>
    <path class="cls-2" d="M476.17,330.08c1.19-.24,1.79.24,1.79,1.43v135.43c0,.96-.54,1.43-1.61,1.43h-16.28c-1.07,0-1.61-.48-1.61-1.43v-131.49c0-.95.42-1.43,1.25-1.43l16.46-3.94Z"/>
    <path class="cls-2" d="M499.25,341.53c3.1,0,5.64,1.01,7.6,3.04,1.97,2.03,2.95,4.41,2.95,7.16s-.98,5.1-2.95,7.07c-1.97,1.97-4.5,2.95-7.6,2.95s-5.64-.98-7.6-2.95c-1.97-1.97-2.95-4.32-2.95-7.07s.98-5.13,2.95-7.16c1.97-2.03,4.5-3.04,7.6-3.04ZM507.12,368.18c1.19-.24,1.79.24,1.79,1.43v97.32c0,.96-.48,1.43-1.43,1.43h-16.46c-.96,0-1.43-.48-1.43-1.43v-93.57c0-.72.36-1.19,1.07-1.43l16.46-3.76Z"/>
    <path class="cls-2" d="M571.71,366.22c12.17,0,21.5,3.79,28,11.36,6.5,7.58,9.75,18.58,9.75,33.01v56.35c0,.96-.54,1.43-1.61,1.43h-16.28c-1.07,0-1.61-.48-1.61-1.43v-56.35c0-11.21-2.09-19.41-6.26-24.6-4.18-5.19-10.2-7.78-18.07-7.78-3.46,0-6.74.69-9.84,2.06-3.1,1.37-5.81,3.43-8.14,6.17-2.33,2.75-4.18,6.14-5.55,10.2-1.37,4.06-2.06,8.71-2.06,13.95v56.35c0,.96-.54,1.43-1.61,1.43h-16.46c-.96,0-1.43-.48-1.43-1.43v-93.57c0-.72.42-1.19,1.25-1.43l16.28-3.76c1.31-.24,1.97.24,1.97,1.43v14.85c3.46-5.6,7.9-10.05,13.33-13.33,5.43-3.28,11.54-4.92,18.34-4.92Z"/>
    <path class="cls-2" d="M707.67,465.87c.48.6.56,1.16.27,1.7-.3.54-.75.8-1.34.8h-22.9c-.48,0-.84-.12-1.07-.36l-37.57-40.79-5.55,5.55v34.17c0,.96-.48,1.43-1.43,1.43h-16.46c-.96,0-1.43-.48-1.43-1.43v-131.49c0-.95.36-1.43,1.07-1.43l16.46-3.94c1.19-.24,1.79.24,1.79,1.43v89.63l50.27-52.96c.24-.36.54-.54.89-.54h10.91c.72,0,1.19.3,1.43.89.24.6.12,1.19-.36,1.79l-43.47,42.94,48.48,52.6Z"/>
  </g>
</svg>